<?xml version="1.0" standalone="no"?>
<!DOCTYPE svg PUBLIC "-//W3C//DTD SVG 20010904//EN"
 "http://www.w3.org/TR/2001/REC-SVG-20010904/DTD/svg10.dtd">
<svg version="1.0" xmlns="http://www.w3.org/2000/svg"
 width="1800.000000pt" height="682.000000pt" viewBox="0 0 1800.000000 682.000000"
 preserveAspectRatio="xMidYMid meet">

<g transform="translate(0.000000,682.000000) scale(0.100000,-0.100000)"
fill="#000000" stroke="none">
<path d="M1920 6209 c-173 -110 -340 -215 -370 -233 -62 -38 -1455 -909 -1512
-947 l-38 -24 0 -2497 0 -2498 3698 0 3697 0 35 31 c19 17 71 65 115 107 176
166 213 201 297 274 47 42 106 96 130 120 39 39 238 199 360 290 61 46 144
118 314 273 72 66 165 147 208 180 230 179 401 316 487 390 25 22 76 65 114
95 38 30 107 89 155 130 215 186 425 357 620 505 51 39 167 128 259 199 91 71
292 225 446 341 154 116 317 240 363 275 46 36 118 92 161 125 117 90 551 432
857 675 148 118 367 291 486 385 119 93 215 171 214 173 -2 1 -52 -22 -112
-51 -989 -493 -1099 -545 -1170 -552 -38 -4 -127 -16 -199 -26 -138 -21 -317
-43 -427 -54 l-66 -6 -74 56 c-40 30 -125 100 -188 155 -244 211 -343 295
-920 782 -327 276 -653 551 -724 612 -110 93 -135 110 -160 108 -17 -2 -148
-18 -291 -37 -143 -19 -312 -42 -375 -50 -63 -9 -146 -20 -185 -26 -38 -5
-340 -45 -670 -89 -744 -98 -662 -85 -1150 -181 -225 -44 -480 -94 -565 -110
-85 -17 -209 -41 -275 -54 -554 -111 -951 -186 -965 -182 -15 4 -769 519
-1050 717 -52 37 -196 136 -320 221 -124 84 -370 254 -548 376 -178 123 -329
223 -335 222 -7 -1 -154 -91 -327 -200z"/>
<path d="M16775 4133 c17 -17 278 -252 580 -523 303 -271 571 -514 598 -539
l47 -46 -2 190 -3 189 -210 128 c-115 70 -280 170 -365 221 -85 52 -227 138
-315 192 -140 86 -249 152 -335 203 -22 14 -22 12 5 -15z"/>
</g>
</svg>
