<?xml version="1.0" standalone="no"?>
<!DOCTYPE svg PUBLIC "-//W3C//DTD SVG 20010904//EN"
 "http://www.w3.org/TR/2001/REC-SVG-20010904/DTD/svg10.dtd">
<svg version="1.0" xmlns="http://www.w3.org/2000/svg"
 width="8000.000000pt" height="2213.000000pt" viewBox="0 0 8000.000000 2213.000000"
 preserveAspectRatio="xMidYMid meet">

<g transform="translate(0.000000,2213.000000) scale(0.100000,-0.100000)"
fill="#000000" stroke="none">
<path d="M5600 17589 c-2412 -1508 -4393 -2744 -4402 -2746 -10 -3 -16 -8 -14
-12 2 -3 -264 -172 -590 -376 l-594 -370 0 -7042 0 -7043 40000 0 40000 0 0
3473 -1 3472 -2960 1800 c-2956 1797 -3027 1840 -3128 1915 -30 22 -921 820
-1982 1775 l-1928 1735 -583 -24 c-321 -13 -594 -24 -608 -25 -14 0 -2001 -84
-4416 -185 -3485 -145 -4396 -186 -4411 -197 -11 -8 -393 -308 -850 -667 -456
-360 -849 -665 -874 -678 -120 -64 -5380 -2644 -5391 -2644 -7 -1 0 -6 16 -13
28 -12 25 -14 -155 -103 l-184 -91 -175 -22 c-96 -12 -209 -26 -250 -31 -41
-5 -109 -12 -150 -15 -41 -3 -190 -21 -330 -40 -684 -93 -848 -116 -890 -125
-65 -15 -429 -65 -610 -85 -85 -9 -249 -27 -365 -40 -115 -14 -293 -34 -395
-45 -102 -11 -210 -24 -240 -29 l-55 -9 -85 72 c-47 39 -116 93 -155 119 -120
82 -162 113 -268 200 -56 46 -133 107 -172 136 -124 93 -206 165 -636 561
-129 119 -251 222 -337 283 -86 60 -295 232 -432 352 -52 47 -187 161 -300
255 -214 179 -253 217 -245 238 2 6 0 12 -5 12 -6 0 -1459 1220 -3230 2710
l-3220 2710 -4992 -665 -4993 -666 -5007 -980 -5007 -980 -2288 1572 c-1258
865 -2319 1596 -2358 1624 -172 127 -5345 3675 -5357 3675 -7 0 -1986 -1234
-4398 -2741z"/>
</g>
</svg>
