<?xml version="1.0" standalone="no"?>
<!DOCTYPE svg PUBLIC "-//W3C//DTD SVG 20010904//EN"
 "http://www.w3.org/TR/2001/REC-SVG-20010904/DTD/svg10.dtd">
<svg version="1.0" xmlns="http://www.w3.org/2000/svg"
 width="1800.000000pt" height="541.000000pt" viewBox="0 0 1800.000000 541.000000"
 preserveAspectRatio="xMidYMid meet">

<g transform="translate(0.000000,541.000000) scale(0.100000,-0.100000)"
fill="#000000" stroke="none">
<path d="M8770 5400 c-267 -4 -745 -11 -1062 -15 l-577 -7 -328 -229 c-180
-126 -330 -236 -333 -243 -4 -12 -363 -267 -903 -643 -54 -37 -120 -84 -145
-104 -41 -31 -392 -279 -597 -422 -38 -26 -99 -69 -134 -93 -43 -30 -72 -43
-85 -40 -47 11 -4586 926 -4596 926 -7 0 -10 -733 -10 -2265 l0 -2265 9000 0
9000 0 0 1881 0 1880 -42 -5 c-24 -3 -169 -11 -323 -17 -154 -6 -440 -19 -635
-28 l-355 -17 -165 47 c-91 26 -221 64 -290 84 -69 20 -177 52 -240 70 -63 18
-171 50 -240 70 -69 20 -177 52 -240 70 -63 18 -153 44 -200 58 -47 14 -173
51 -280 82 -588 171 -793 233 -1065 326 -165 56 -572 193 -905 305 -333 113
-724 245 -870 294 l-265 90 -325 29 c-179 17 -476 44 -660 61 -414 37 -805 73
-1142 105 -143 14 -312 24 -380 23 -68 -1 -341 -5 -608 -8z"/>
</g>
</svg>
