<?xml version="1.0" standalone="no"?>
<!DOCTYPE svg PUBLIC "-//W3C//DTD SVG 20010904//EN"
 "http://www.w3.org/TR/2001/REC-SVG-20010904/DTD/svg10.dtd">
<svg version="1.0" xmlns="http://www.w3.org/2000/svg"
 width="1800.000000pt" height="456.000000pt" viewBox="0 0 1800.000000 456.000000"
 preserveAspectRatio="xMidYMid meet">

<g transform="translate(0.000000,456.000000) scale(0.100000,-0.100000)"
fill="#000000" stroke="none">
<path d="M8860 4404 c-146 -80 -303 -166 -350 -191 -153 -83 -834 -455 -880
-480 -121 -68 -632 -344 -685 -371 -80 -40 -118 -52 -190 -57 -58 -5 -342 -23
-700 -45 -93 -5 -276 -17 -405 -25 -129 -8 -345 -22 -480 -30 -135 -8 -312
-20 -395 -25 -82 -5 -311 -16 -507 -25 -587 -25 -1041 -44 -1433 -60 -203 -8
-408 -17 -455 -19 -82 -4 -122 4 -1219 255 -624 142 -1140 259 -1148 259 -11
0 -13 -297 -13 -1790 l0 -1790 1698 0 1697 0 291 228 c160 125 351 274 425
332 304 238 510 399 614 480 162 127 397 310 685 534 140 110 264 209 275 221
18 19 152 127 380 305 39 30 133 104 210 165 77 61 282 223 455 360 173 136
344 271 380 300 36 28 117 92 180 142 63 50 252 200 420 333 168 133 312 244
320 248 8 3 71 49 140 102 123 95 620 476 856 656 117 89 122 92 165 88 24 -2
37 -1 29 2 -8 4 -27 15 -42 25 -14 11 -32 19 -40 19 -7 0 -132 -66 -278 -146z"/>
</g>
</svg>
