<?xml version="1.0" standalone="no"?>
<!DOCTYPE svg PUBLIC "-//W3C//DTD SVG 20010904//EN"
 "http://www.w3.org/TR/2001/REC-SVG-20010904/DTD/svg10.dtd">
<svg version="1.0" xmlns="http://www.w3.org/2000/svg"
 width="1800.000000pt" height="682.000000pt" viewBox="0 0 1800.000000 682.000000"
 preserveAspectRatio="xMidYMid meet">

<g transform="translate(0.000000,682.000000) scale(0.100000,-0.100000)"
fill="#000000" stroke="none">
<path d="M15719 5026 c-2 -2 -89 -6 -194 -10 -104 -4 -341 -13 -525 -21 -394
-17 -726 -31 -1085 -45 -143 -6 -295 -12 -338 -15 l-79 -5 -111 -87 c-62 -48
-148 -116 -191 -151 -44 -35 -98 -73 -120 -84 -39 -20 -414 -310 -836 -648
-211 -169 -655 -518 -781 -615 -43 -33 -115 -89 -161 -125 -46 -35 -209 -159
-363 -275 -154 -116 -355 -270 -446 -341 -92 -71 -208 -160 -259 -199 -195
-148 -405 -319 -620 -505 -48 -41 -117 -100 -155 -130 -38 -30 -89 -73 -114
-95 -86 -74 -257 -211 -487 -390 -43 -33 -136 -114 -208 -180 -170 -155 -253
-227 -314 -273 -122 -91 -321 -251 -360 -290 -24 -24 -83 -78 -130 -120 -84
-73 -121 -108 -297 -274 -44 -42 -96 -90 -115 -107 l-35 -31 5303 0 5302 0 0
1510 0 1510 -635 571 c-349 314 -660 588 -692 608 -32 21 -253 214 -492 430
-393 354 -448 400 -462 387z"/>
</g>
</svg>
