<?xml version="1.0" standalone="no"?>
<!DOCTYPE svg PUBLIC "-//W3C//DTD SVG 20010904//EN"
 "http://www.w3.org/TR/2001/REC-SVG-20010904/DTD/svg10.dtd">
<svg version="1.0" xmlns="http://www.w3.org/2000/svg"
 width="1800.000000pt" height="757.000000pt" viewBox="0 0 1800.000000 757.000000"
 preserveAspectRatio="xMidYMid meet">

<g transform="translate(0.000000,757.000000) scale(0.100000,-0.100000)"
fill="#000000" stroke="none">
<path d="M4590 7216 c-85 -34 -294 -118 -465 -185 -170 -68 -418 -166 -550
-218 -298 -118 -636 -252 -953 -378 l-244 -96 -56 17 c-31 9 -70 20 -87 24
-29 7 -356 102 -1135 327 -201 58 -378 109 -395 113 -16 4 -180 51 -364 104
-183 53 -335 96 -337 96 -2 0 -4 -1098 -4 -2440 0 -1342 2 -2440 5 -2440 2 0
566 424 1252 943 687 519 2205 1666 3376 2551 1170 884 2127 1609 2127 1611 0
2 -70 -45 -157 -105 -86 -61 -162 -110 -169 -110 -7 0 -104 14 -216 30 -112
17 -261 39 -333 50 -71 11 -206 31 -300 45 -93 14 -228 35 -300 45 -71 11
-204 31 -295 44 -91 14 -183 27 -205 30 -33 4 -67 -5 -195 -58z"/>
</g>
</svg>
