<?xml version="1.0" standalone="no"?>
<!DOCTYPE svg PUBLIC "-//W3C//DTD SVG 20010904//EN"
 "http://www.w3.org/TR/2001/REC-SVG-20010904/DTD/svg10.dtd">
<svg version="1.0" xmlns="http://www.w3.org/2000/svg"
 width="1800.000000pt" height="541.000000pt" viewBox="0 0 1800.000000 541.000000"
 preserveAspectRatio="xMidYMid meet">

<g transform="translate(0.000000,541.000000) scale(0.100000,-0.100000)"
fill="#000000" stroke="none">
<path d="M4590 5086 c-85 -34 -294 -118 -465 -185 -170 -68 -418 -166 -550
-218 -298 -118 -636 -252 -953 -378 l-244 -96 -56 17 c-31 9 -70 20 -87 24
-29 7 -356 102 -1135 327 -201 58 -378 109 -395 113 -16 4 -180 51 -364 104
-183 53 -335 96 -337 96 -2 0 -4 -80 -4 -178 l0 -178 2298 -464 c1263 -255
2304 -465 2312 -467 9 -2 45 16 80 41 36 24 97 67 135 93 205 143 556 391 597
422 25 20 91 67 145 104 495 344 899 630 902 639 2 6 -5 7 -18 3 -12 -4 -68 0
-124 9 -56 9 -210 32 -342 51 -132 20 -314 47 -405 61 -91 14 -223 34 -295 44
-71 11 -204 31 -295 44 -91 14 -183 27 -205 30 -33 4 -67 -5 -195 -58z"/>
</g>
</svg>
