<?xml version="1.0" standalone="no"?>
<!DOCTYPE svg PUBLIC "-//W3C//DTD SVG 20010904//EN"
 "http://www.w3.org/TR/2001/REC-SVG-20010904/DTD/svg10.dtd">
<svg version="1.0" xmlns="http://www.w3.org/2000/svg"
 width="7878.000000pt" height="1738.000000pt" viewBox="0 0 7878.000000 1738.000000"
 preserveAspectRatio="xMidYMid meet">

<g transform="translate(0.000000,1738.000000) scale(0.100000,-0.100000)"
fill="#000000" stroke="none">
<path d="M38080 16329 c-1048 -572 -1948 -1063 -2000 -1091 -52 -28 -153 -83
-225 -123 -127 -71 -1802 -985 -1980 -1080 -49 -27 -196 -107 -325 -178 -129
-71 -606 -331 -1060 -579 -955 -521 -1257 -686 -1320 -720 -25 -14 -71 -39
-102 -57 -32 -17 -84 -45 -115 -62 -32 -18 -80 -44 -108 -59 -27 -15 -75 -41
-105 -57 -30 -17 -131 -72 -225 -123 -93 -51 -204 -113 -245 -139 -73 -45 -77
-46 -176 -52 l-100 -5 -69 -50 c-69 -48 -70 -49 -155 -52 -47 -2 -2283 -140
-4970 -307 l-4885 -304 -4958 -207 -4958 -206 -417 95 c-229 53 -1126 258
-1992 457 -1982 454 -2536 581 -3595 824 -467 107 -1205 276 -1640 376 -434
100 -857 197 -940 215 -82 19 -426 97 -763 174 -337 78 -622 141 -633 141 -19
0 -19 -65 -19 -6580 l0 -6580 39390 0 39390 0 0 3544 0 3545 -44 3 c-43 3 -52
11 -402 348 -198 191 -1329 1279 -2514 2420 -1185 1141 -2976 2864 -3979 3830
-1003 965 -1829 1758 -1835 1762 -7 4 -210 -61 -452 -144 -241 -82 -601 -205
-799 -273 -981 -335 -1204 -412 -1375 -470 -102 -35 -372 -127 -600 -205 -228
-78 -498 -170 -600 -205 -102 -34 -997 -341 -1990 -680 -993 -340 -1843 -630
-1890 -645 -47 -15 -231 -78 -410 -140 -382 -131 -551 -189 -1110 -380 -228
-78 -493 -168 -589 -201 -95 -32 -181 -59 -190 -59 -9 0 -404 142 -876 316
-473 173 -963 353 -1090 399 -126 46 -336 123 -465 170 -129 48 -264 97 -300
110 -36 13 -152 55 -257 94 -232 85 -318 117 -1473 541 -498 182 -1069 392
-1270 465 -201 74 -446 164 -545 200 -99 37 -209 77 -245 90 -36 13 -150 55
-255 93 -104 39 -640 235 -1190 436 -550 202 -1047 384 -1105 406 -58 21 -193
71 -300 110 -441 161 -498 182 -560 206 -69 26 -118 34 -6895 1049 l-2850 428
-158 103 c-87 57 -163 104 -170 104 -7 -1 -869 -469 -1917 -1041z"/>
</g>
</svg>
