<?xml version="1.0" standalone="no"?>
<!DOCTYPE svg PUBLIC "-//W3C//DTD SVG 20010904//EN"
 "http://www.w3.org/TR/2001/REC-SVG-20010904/DTD/svg10.dtd">
<svg version="1.0" xmlns="http://www.w3.org/2000/svg"
 width="8000.000000pt" height="3037.000000pt" viewBox="0 0 8000.000000 3037.000000"
 preserveAspectRatio="xMidYMid meet">

<g transform="translate(0.000000,3037.000000) scale(0.100000,-0.100000)"
fill="#000000" stroke="none">
<path d="M17740 27739 c-1240 -1447 -2266 -2644 -2280 -2660 -18 -21 -61 -43
-155 -78 -71 -27 -1158 -441 -2415 -921 l-2285 -872 -4485 -68 c-2467 -38
-4587 -70 -4712 -72 -124 -2 -224 0 -222 3 2 4 -83 49 -189 100 -105 52 -371
183 -589 291 -219 109 -400 198 -403 198 -3 0 -5 -5323 -5 -11830 l0 -11830
40000 0 40000 0 0 10749 0 10748 -87 11 c-49 7 -2288 277 -4978 603 -3651 441
-4905 589 -4950 585 -33 -3 -136 -28 -230 -56 -93 -28 -181 -53 -194 -56 -13
-3 -32 -9 -43 -15 -10 -5 -18 -7 -18 -5 0 3 -12 1 -27 -5 -16 -6 -39 -13 -53
-15 -14 -3 -32 -7 -40 -11 -8 -3 -24 -8 -35 -10 -11 -2 -65 -17 -120 -34 -83
-25 -600 -108 -945 -152 -19 -2 -2217 -320 -4885 -705 -2667 -386 -4861 -703
-4875 -704 -19 -1 -283 179 -1030 702 -553 387 -1007 707 -1008 712 -2 4 -7 8
-12 8 -11 0 -4684 3271 -4688 3282 -2 4 -8 8 -14 8 -11 0 -81 51 -86 63 -2 4
-8 7 -12 7 -12 0 -384 261 -388 272 -2 4 -8 8 -12 8 -5 0 -294 199 -642 443
l-633 443 -4995 1248 -4995 1248 -100 -50 c-55 -27 -154 -77 -220 -112 -66
-35 -174 -92 -240 -126 -66 -34 -174 -90 -240 -125 -66 -34 -174 -91 -240
-125 -66 -34 -174 -90 -240 -125 -66 -34 -174 -91 -240 -125 -66 -34 -174 -90
-240 -125 -66 -34 -174 -91 -240 -125 -66 -34 -174 -90 -240 -125 -66 -34
-174 -91 -240 -125 -66 -34 -174 -90 -240 -125 -66 -34 -174 -91 -240 -125
-66 -34 -174 -90 -240 -125 -66 -34 -174 -91 -240 -125 -66 -34 -174 -90 -240
-125 -66 -34 -174 -91 -240 -125 -66 -34 -174 -90 -240 -125 -66 -34 -174 -91
-240 -125 -66 -34 -174 -90 -240 -125 -66 -34 -176 -92 -245 -128 -69 -35
-174 -90 -235 -122 -60 -31 -166 -86 -235 -122 -69 -36 -177 -92 -240 -125
-216 -113 -375 -196 -485 -253 -60 -31 -191 -99 -290 -151 -99 -52 -218 -114
-265 -137 -47 -24 -89 -46 -95 -50 -5 -5 -104 -57 -220 -116 -387 -200 -560
-290 -810 -421 -71 -37 -179 -94 -240 -125 -60 -32 -168 -88 -240 -125 -71
-37 -179 -94 -240 -125 -60 -32 -168 -88 -240 -125 -71 -37 -179 -94 -240
-125 -60 -32 -168 -88 -240 -125 -71 -38 -179 -94 -240 -125 -161 -83 -347
-180 -455 -238 -52 -28 -101 -51 -109 -51 -8 0 -29 11 -47 25 -18 14 -35 25
-38 25 -6 0 -9836 6102 -9878 6131 -14 11 -30 19 -35 19 -4 0 -1023 -1184
-2263 -2631z"/>
</g>
</svg>
