<?xml version="1.0" standalone="no"?>
<!DOCTYPE svg PUBLIC "-//W3C//DTD SVG 20010904//EN"
 "http://www.w3.org/TR/2001/REC-SVG-20010904/DTD/svg10.dtd">
<svg version="1.0" xmlns="http://www.w3.org/2000/svg"
 width="8000.000000pt" height="4078.000000pt" viewBox="0 0 8000.000000 4078.000000"
 preserveAspectRatio="xMidYMid meet">

<g transform="translate(0.000000,4078.000000) scale(0.100000,-0.100000)"
fill="#000000" stroke="none">
<path d="M79340 40364 c-1277 -793 -3401 -2111 -3825 -2374 -236 -147 -740
-460 -1120 -695 -379 -236 -1153 -716 -1720 -1068 -566 -352 -1087 -675 -1156
-718 -69 -42 -150 -93 -180 -112 -30 -19 -119 -74 -199 -124 -80 -49 -210
-130 -290 -180 -121 -75 -339 -210 -775 -480 -38 -24 -78 -43 -88 -43 -11 0
-479 65 -1041 145 -562 79 -1862 264 -2891 409 -1028 146 -2396 340 -3040 431
-643 91 -1582 224 -2085 296 -503 71 -926 128 -940 126 -21 -3 -522 -150 -795
-232 -44 -14 -1063 -315 -2265 -670 -1202 -356 -2282 -675 -2400 -710 -1783
-531 -4519 -1335 -4531 -1332 -9 3 -2261 1594 -5004 3537 -4857 3440 -4988
3532 -5023 3526 -21 -3 -102 -23 -182 -45 -158 -43 -296 -80 -1740 -471 -531
-143 -1037 -281 -1125 -305 -88 -24 -329 -89 -535 -145 -206 -56 -422 -114
-480 -130 -58 -16 -274 -75 -480 -130 -206 -56 -481 -130 -610 -165 -129 -35
-669 -181 -1200 -325 -531 -143 -1012 -274 -1070 -290 -58 -16 -274 -74 -480
-130 -206 -56 -422 -114 -480 -130 -58 -16 -439 -119 -848 -230 l-743 -201
-397 130 c-218 71 -539 175 -712 231 -173 56 -353 114 -400 130 -47 16 -227
75 -400 130 -173 56 -353 115 -400 130 -47 16 -227 75 -400 130 -173 56 -346
112 -385 125 -65 23 -889 290 -1620 526 -170 56 -348 114 -395 129 -47 16
-148 49 -225 74 -149 48 -1526 495 -2160 701 -209 68 -858 279 -1443 469
l-1062 345 -1748 -335 c-961 -184 -2276 -436 -2922 -560 -646 -124 -1620 -311
-2165 -415 -544 -104 -1424 -273 -1955 -375 -531 -101 -1021 -195 -1090 -209
-69 -14 -183 -45 -255 -69 -160 -55 -576 -198 -870 -301 -121 -42 -245 -85
-275 -95 -54 -18 -359 -123 -795 -275 -121 -42 -245 -85 -275 -95 -30 -10
-113 -38 -185 -63 -71 -25 -182 -63 -245 -85 -63 -22 -306 -106 -540 -187
-234 -81 -540 -187 -680 -235 -140 -49 -354 -123 -475 -165 -121 -42 -245 -85
-275 -95 -30 -10 -113 -38 -185 -63 -71 -25 -247 -86 -390 -135 -143 -50 -359
-125 -480 -167 -121 -42 -245 -85 -275 -95 -54 -18 -359 -123 -795 -275 -121
-42 -245 -85 -275 -95 -30 -10 -113 -38 -185 -63 -71 -25 -247 -86 -390 -135
-143 -50 -359 -125 -480 -167 -121 -42 -245 -85 -275 -95 -30 -10 -147 -50
-260 -90 -113 -40 -223 -78 -245 -85 -22 -7 -98 -33 -170 -58 -71 -25 -276
-96 -455 -157 -179 -62 -340 -118 -357 -126 l-33 -13 0 -17635 0 -17636 40000
0 40000 0 0 20385 c0 11212 -1 20385 -3 20385 -2 0 -297 -183 -657 -406z"/>
</g>
</svg>
