<?xml version="1.0" standalone="no"?>
<!DOCTYPE svg PUBLIC "-//W3C//DTD SVG 20010904//EN"
 "http://www.w3.org/TR/2001/REC-SVG-20010904/DTD/svg10.dtd">
<svg version="1.0" xmlns="http://www.w3.org/2000/svg"
 width="7574.000000pt" height="1213.000000pt" viewBox="0 0 7574.000000 1213.000000"
 preserveAspectRatio="xMidYMid meet">

<g transform="translate(0.000000,1213.000000) scale(0.100000,-0.100000)"
fill="#000000" stroke="none">
<path d="M38380 12109 c-1889 -25 -4295 -55 -6350 -79 -954 -11 -1803 -23
-1886 -26 l-151 -6 -124 -87 c-68 -48 -717 -502 -1443 -1010 l-1319 -923
-3550 533 -3550 532 -51 -18 c-28 -9 -247 -95 -486 -190 -239 -95 -532 -211
-650 -258 -118 -47 -348 -138 -510 -202 -162 -64 -389 -154 -505 -200 -115
-46 -318 -126 -450 -178 -503 -199 -738 -292 -970 -384 -132 -52 -616 -244
-1075 -425 -927 -368 -1228 -487 -1560 -618 -124 -49 -340 -134 -480 -190
-140 -56 -356 -141 -480 -190 -124 -49 -340 -134 -480 -190 -140 -56 -356
-141 -480 -190 -124 -49 -340 -134 -480 -190 -140 -56 -356 -141 -480 -190
-124 -49 -340 -135 -480 -190 -140 -56 -286 -113 -325 -127 l-70 -26 -1880
541 c-1034 297 -2681 771 -3660 1052 -979 282 -2378 684 -3110 895 -731 210
-1333 380 -1338 378 -4 -2 -7 -2243 -7 -4979 l0 -4974 37870 0 37870 0 0 2596
0 2596 -32 -6 c-18 -3 -818 -42 -1778 -86 -960 -44 -2236 -103 -2836 -130
l-1092 -50 -358 104 c-198 58 -1927 562 -3844 1121 -1917 559 -4007 1169
-4645 1355 l-1160 339 -1260 425 c-693 234 -2941 992 -4995 1686 l-3735 1261
-5013 459 c-3617 332 -5045 460 -5130 459 -64 -1 -731 -10 -1482 -20z"/>
</g>
</svg>
