<?xml version="1.0" standalone="no"?>
<!DOCTYPE svg PUBLIC "-//W3C//DTD SVG 20010904//EN"
 "http://www.w3.org/TR/2001/REC-SVG-20010904/DTD/svg10.dtd">
<svg version="1.0" xmlns="http://www.w3.org/2000/svg"
 width="1800.000000pt" height="456.000000pt" viewBox="0 0 1800.000000 456.000000"
 preserveAspectRatio="xMidYMid meet">

<g transform="translate(0.000000,456.000000) scale(0.100000,-0.100000)"
fill="#000000" stroke="none">
<path d="M9019 4411 c-278 -213 -476 -364 -719 -551 -140 -108 -262 -199 -270
-202 -8 -4 -152 -115 -320 -248 -168 -133 -357 -283 -420 -333 -63 -50 -144
-114 -180 -142 -36 -29 -207 -164 -380 -300 -173 -137 -378 -299 -455 -360
-77 -61 -171 -135 -210 -165 -228 -178 -362 -286 -380 -305 -11 -12 -135 -111
-275 -221 -301 -234 -533 -415 -685 -534 -60 -48 -207 -162 -325 -254 -118
-92 -273 -214 -345 -270 -71 -56 -251 -196 -399 -312 l-269 -209 7294 -3
c4012 -1 7300 0 7307 3 9 3 12 234 12 1105 0 605 -4 1100 -8 1100 -10 0 -28
16 -187 169 -279 269 -445 430 -565 545 -117 112 -204 196 -525 506 -72 69
-191 184 -265 255 -74 72 -200 193 -280 270 -80 77 -152 146 -161 153 -13 10
-51 0 -225 -59 -115 -39 -220 -74 -234 -79 -14 -4 -185 -63 -380 -130 -401
-138 -805 -275 -865 -295 -22 -7 -165 -56 -318 -109 l-277 -95 -233 85 c-240
89 -450 165 -622 229 -55 20 -314 115 -575 210 -261 95 -556 203 -655 240 -99
36 -202 71 -230 76 -52 9 -237 37 -422 64 -60 9 -193 29 -298 45 -104 16 -269
41 -365 55 -96 14 -215 32 -265 40 -49 8 -182 28 -295 44 -113 17 -266 40
-340 51 -74 11 -164 22 -200 24 l-66 3 -125 -96z"/>
</g>
</svg>
